<?xml version="1.0" encoding="iso-8859-1"?>
<!-- Generator: Adobe Illustrator 19.0.0, SVG Export Plug-In . SVG Version: 6.00 Build 0)  -->
<svg version="1.1" id="Capa_1" xmlns="http://www.w3.org/2000/svg" xmlns:xlink="http://www.w3.org/1999/xlink" x="0px" y="0px"
	 viewBox="0 0 512 512" style="enable-background:new 0 0 512 512;" xml:space="preserve">
<path style="fill:#E3AA75;" d="M371.612,132.129v-13.251c0-62.253-47.841-115.818-110.024-118.746
	c-66.392-3.126-121.202,49.777-121.202,115.481v16.516c0,37.444-14.148,65.455-21.061,76.907c-2.099,3.478-1.433,7.896,1.639,10.554
	c12.639,10.938,46.836,37.304,93.749,48.146h82.572c46.913-10.843,81.111-37.208,93.749-48.146
	c3.072-2.658,3.738-7.076,1.639-10.554C385.76,197.584,371.612,169.573,371.612,132.129z"/>
<path style="fill:#F7D291;" d="M387.878,327.855l-75.573-32.388c-9.109-3.904-15.015-12.861-15.015-22.771v-41.47h-82.58v41.47
	c0,9.91-5.906,18.867-15.015,22.771l-75.573,32.388c-15.182,6.507-25.025,21.434-25.025,37.952v113.161
	c0,18.243,14.789,33.032,33.032,33.032h74.323c13.682,0,24.774-11.092,24.774-24.774c0-2.911-0.595-5.663-1.517-8.258h52.583
	c-0.922,2.595-1.517,5.347-1.517,8.258c0,13.682,11.092,24.774,24.774,24.774h74.323c18.243,0,33.032-14.789,33.032-33.032V365.807
	C412.902,349.29,403.059,334.362,387.878,327.855z"/>
<path style="fill:#E3AA75;" d="M322.064,299.65v5.899c0,36.486-29.578,66.065-66.065,66.065s-66.065-29.578-66.065-66.065v-5.899
	l-41.29,17.696v120.332h214.71V317.345L322.064,299.65z"/>
<path style="fill:#FF8087;" d="M157.774,462.452h48.676c10.771,0,19.844,6.916,23.257,16.516h52.583
	c3.413-9.6,12.486-16.516,23.257-16.516h48.676c10.719-10.493,17.388-25.105,17.388-41.29c0-31.926-25.881-57.806-57.806-57.806
	H198.193c-31.925,0-57.806,25.881-57.806,57.806C140.386,437.346,147.055,451.958,157.774,462.452z"/>
<path style="fill:#FFE1A0;" d="M313.805,363.355h-48.716c-0.542,2.669-0.832,5.429-0.832,8.258c0,22.804,18.486,41.29,41.29,41.29
	c22.12,0,40.026-17.438,41.089-39.294C337.309,367.156,326.007,363.355,313.805,363.355z"/>
<path style="fill:#F0C382;" d="M214.71,231.226v23.904c12.589,5.802,26.544,9.129,41.29,9.129c14.746,0,28.701-3.327,41.29-9.129
	v-23.904L214.71,231.226L214.71,231.226z"/>
<path style="fill:#FFE1A0;" d="M255.999,247.742L255.999,247.742c-45.608,0-82.581-36.973-82.581-82.581V66.065h165.161v99.097
	C338.58,210.769,301.607,247.742,255.999,247.742z"/>
<g>
	<path style="fill:#6E5A64;" d="M305.628,396.387c-4.565,0-8.298-3.698-8.298-8.258s3.653-8.258,8.218-8.258h0.081
		c4.565,0,8.258,3.698,8.258,8.258S310.193,396.387,305.628,396.387z"/>
	<path style="fill:#6E5A64;" d="M218.839,158.621c-7.79,0-14.927-3.468-19.097-9.274c-2.661-3.706-1.815-8.863,1.895-11.524
		c3.702-2.661,8.855-1.823,11.524,1.895c0.79,1.101,2.75,2.387,5.677,2.387s4.887-1.286,5.677-2.387
		c2.653-3.718,7.815-4.556,11.524-1.895c3.71,2.661,4.556,7.819,1.895,11.524C233.766,155.153,226.628,158.621,218.839,158.621z"/>
</g>
<path style="fill:#E3AA75;" d="M255.999,206.476c-12.395,0-23.831-3.988-30.581-10.669c-3.242-3.21-3.274-8.435-0.065-11.677
	c3.202-3.242,8.444-3.274,11.677-0.065c2.75,2.722,9.363,5.895,18.968,5.895s16.218-3.173,18.968-5.895
	c3.234-3.21,8.476-3.177,11.677,0.065c3.21,3.242,3.177,8.468-0.065,11.677C279.83,202.488,268.395,206.476,255.999,206.476z"/>
<path style="fill:#6E5A64;" d="M293.16,158.621c-7.79,0-14.927-3.468-19.097-9.274c-2.661-3.706-1.815-8.863,1.895-11.524
	c3.702-2.661,8.863-1.823,11.524,1.895c0.79,1.101,2.75,2.387,5.677,2.387s4.887-1.286,5.677-2.387
	c2.653-3.718,7.815-4.556,11.524-1.895c3.71,2.661,4.556,7.819,1.895,11.524C308.089,155.153,300.951,158.621,293.16,158.621z"/>
<path style="fill:#F7D291;" d="M214.71,66.065l-5.102,9.71c1.644,2.262,40.721,54.334,128.973,56.286V66.065H214.71z"/>
<path style="fill:#F5B97D;" d="M217.505,75.468c2.896-4.325,8.903-5.108,12.611-1.456c16.201,15.958,60.687,49.589,141.024,40.035
	l0.283-2.177C369.43,49.767,318.587,0,255.999,0c-63.851,0-115.613,51.762-115.613,115.613
	C140.386,115.613,190.625,115.613,217.505,75.468z"/>
<g>
	<path style="fill:#E6646E;" d="M231.643,363.355h-16.516c2.951,47.37,30.861,88.023,70.812,108.879
		c4.285-5.649,10.925-9.346,18.48-9.692C264.064,446.551,234.859,408.529,231.643,363.355z"/>
	<path style="fill:#E6646E;" d="M354.465,380.09c0.372,2.636,0.631,5.305,0.631,8.039c0,31.793-26.013,57.806-57.806,57.806h-82.58
		c-31.793,0-57.806-26.013-57.806-57.806c0-2.733,0.259-5.404,0.631-8.039c-10.582,10.477-17.147,25.004-17.147,41.071
		c0,16.185,6.669,30.797,17.388,41.29h48.676c10.771,0,19.844,6.916,23.257,16.516h52.583c3.413-9.6,12.486-16.516,23.257-16.516
		h48.676c10.719-10.493,17.388-25.105,17.388-41.29C371.612,405.093,365.048,390.567,354.465,380.09z"/>
</g>
<path style="fill:#DC4655;" d="M275.611,445.935h-24.436c10.02,10.559,21.735,19.496,34.765,26.298c0.001,0,0.001,0,0.001-0.001
	c0.977-1.288,2.11-2.438,3.314-3.51c0.239-0.213,0.481-0.415,0.729-0.617c2.591-2.137,5.602-3.746,8.922-4.681
	c0.039-0.011,0.079-0.018,0.118-0.029c1.73-0.478,3.532-0.769,5.397-0.854C293.977,458.404,284.303,452.766,275.611,445.935z"/>
<g>
	<path style="fill:#F0C382;" d="M123.87,487.226c-13.626,0-24.774-11.149-24.774-24.774v16.516
		c0,18.243,14.789,33.032,33.032,33.032h74.323c13.682,0,24.774-11.092,24.774-24.774l0,0H123.87z"/>
	<path style="fill:#F0C382;" d="M388.128,487.226c13.626,0,24.774-11.149,24.774-24.774v16.516
		c0,18.243-14.789,33.032-33.032,33.032h-74.323c-13.682,0-24.774-11.092-24.774-24.774l0,0H388.128z"/>
</g>
<g>
</g>
<g>
</g>
<g>
</g>
<g>
</g>
<g>
</g>
<g>
</g>
<g>
</g>
<g>
</g>
<g>
</g>
<g>
</g>
<g>
</g>
<g>
</g>
<g>
</g>
<g>
</g>
<g>
</g>
</svg>
